<svg width="100" height="100" viewBox="0 0 100 100" fill="none" xmlns="http://www.w3.org/2000/svg">
<g clip-path="url(#clip0_15_302)">
<path d="M97.6221 56.9277C96.563 56.7309 95.5421 57.4303 95.345 58.4908C91.2928 80.2803 72.2393 96.0938 50.0384 96.0938H50.0341C24.6177 96.0914 3.93777 75.4117 3.93543 49.9953C3.93425 37.6832 8.72781 26.1088 17.4329 17.4035C26.1374 8.69922 37.7091 3.90625 50.0204 3.90625H50.0249C55.0071 3.90664 59.8727 4.68906 64.5323 6.23535C62.1126 8.58652 60.6186 11.9713 60.6186 15.7914C60.6186 28.9574 78.687 37.7072 79.4561 38.0732C79.7186 38.198 80.0053 38.2627 80.2954 38.2627C80.3149 38.2627 80.3346 38.2625 80.3544 38.2619L80.4333 38.2596C80.7048 38.2514 80.9716 38.1865 81.2165 38.0695C81.629 37.8725 87.0395 35.2428 91.9436 30.8008C93.5065 34.2055 94.645 37.7855 95.3354 41.474C95.511 42.4129 96.3313 43.0682 97.2528 43.0682C97.3719 43.0682 97.493 43.0572 97.6145 43.0344C98.6749 42.8359 99.3735 41.8154 99.1749 40.7553C98.3346 36.2666 96.8835 31.9262 94.8567 27.8359C97.7608 24.4775 99.9712 20.4057 99.9712 15.7914C99.9712 8.52656 94.5678 2.83555 87.67 2.83555C84.896 2.83555 82.379 3.73711 80.2944 5.46094C78.6053 4.0666 76.1886 2.83555 72.9198 2.83555C71.4225 2.83555 69.9958 3.10371 68.6794 3.59785C62.7497 1.21094 56.4764 0.000585938 50.0251 0H50.0202C36.6665 0 24.1126 5.1998 14.6708 14.6414C5.22781 24.0846 0.0280031 36.6402 0.029175 49.9957C0.0303469 63.351 5.2325 75.9076 14.677 85.3521C24.1216 94.7967 36.6782 99.9988 50.0337 100H50.0384C74.1186 100 94.7895 82.8426 99.1852 59.2051C99.3825 58.1445 98.6827 57.125 97.6221 56.9277ZM78.8253 9.46543C79.1997 9.89316 79.7485 10.1322 80.3163 10.1248C80.8772 10.1207 81.4151 9.86816 81.7825 9.44473C81.7991 9.42754 81.8155 9.40996 81.8313 9.39199C83.4005 7.63359 85.3647 6.74199 87.6698 6.74199C92.3772 6.74199 96.0647 10.717 96.0647 15.7916C96.0647 25.118 83.6337 32.3717 80.3294 34.1346C77.004 32.3727 64.5247 25.1357 64.5247 15.7916C64.5247 10.717 68.2122 6.74199 72.9198 6.74199C75.2569 6.74199 77.2438 7.6582 78.8253 9.46543Z" fill="#373737"/>
<path d="M99.4804 49.4941C99.1605 48.7266 98.3683 48.2334 97.5373 48.2936C96.726 48.3521 96.0262 48.9264 95.801 49.7061C95.5754 50.4871 95.8775 51.3582 96.5406 51.8293C97.199 52.2971 98.0885 52.3103 98.7617 51.8654C99.532 51.3562 99.8283 50.3432 99.4804 49.4941Z" fill="#373737"/>
<path d="M62.2213 44.034L65.6099 40.6453L68.9984 44.034C69.7611 44.7969 70.9974 44.7969 71.7607 44.034C72.5234 43.2713 72.5234 42.0346 71.7607 41.2719L66.9912 36.5022C66.625 36.1357 66.1281 35.9301 65.6101 35.9301C65.0922 35.9301 64.5955 36.1359 64.2291 36.5022L59.4594 41.2719C58.6967 42.0346 58.6967 43.2713 59.4594 44.0342C59.8408 44.4156 60.3406 44.6063 60.8404 44.6063C61.34 44.6059 61.8396 44.4152 62.2213 44.034Z" fill="#373737"/>
<path d="M30.9439 44.034L34.3325 40.6453L37.7212 44.034C38.1027 44.4154 38.6025 44.6061 39.1023 44.6061C39.6021 44.6061 40.1021 44.4154 40.4833 44.034C41.246 43.2713 41.246 42.0346 40.4833 41.2717L35.7136 36.502C34.9509 35.7393 33.7142 35.7393 32.9515 36.502L28.1818 41.2717C27.4191 42.0344 27.4191 43.2711 28.1818 44.034C28.9445 44.7967 30.1812 44.7967 30.9439 44.034Z" fill="#373737"/>
<path d="M20.7837 52.8131V55.1508C20.7837 58.0453 21.2065 60.9047 22.0409 63.6494C22.0458 63.6656 22.0511 63.6818 22.0563 63.6979C24.2794 70.967 29.1759 77.0037 35.8491 80.7C35.8507 80.701 35.8524 80.702 35.854 80.7027C40.1483 83.0813 45.03 84.3383 49.971 84.3383C54.912 84.3383 59.7937 83.0811 64.088 80.7027C64.0888 80.7024 64.0896 80.702 64.0901 80.7014C65.2733 80.0465 66.4231 79.3006 67.5085 78.4836C72.4144 74.79 76.0978 69.5408 77.8851 63.6986C77.8905 63.6822 77.8958 63.6658 77.9009 63.6492C78.7353 60.9047 79.1583 58.0453 79.1583 55.1504V52.8127C79.1583 51.734 78.2839 50.8596 77.2052 50.8596H22.7368C21.6581 50.86 20.7837 51.7344 20.7837 52.8131ZM49.971 80.4324C46.4425 80.4324 42.9505 79.6932 39.7507 78.2805C42.3063 75.344 45.9935 73.6426 49.971 73.6426C53.5948 73.6426 57.0036 75.0545 59.5689 77.6178C59.7835 77.8324 59.9903 78.0537 60.1896 78.2813C56.9903 79.6934 53.4985 80.4324 49.971 80.4324ZM65.1593 75.3631C64.6837 75.7211 64.1939 76.0633 63.6931 76.3875C63.2706 75.8524 62.8155 75.3402 62.3304 74.8553C59.0271 71.5543 54.6376 69.7363 49.9708 69.7363C44.5497 69.7363 39.5476 72.1904 36.2487 76.3861C32.0263 73.6432 28.6708 69.6475 26.6987 65.0357H73.2433C71.5107 69.0916 68.7032 72.6951 65.1593 75.3631ZM24.6899 54.7662H75.2521V55.1508C75.2521 57.1764 75.0134 59.1811 74.5415 61.1283H25.4005C24.9286 59.1809 24.6899 57.1762 24.6899 55.1508V54.7662Z" fill="#373737"/>
</g>
<defs>
<clipPath id="clip0_15_302">
<rect width="100" height="100" fill="white"/>
</clipPath>
</defs>
</svg>
