<svg width="25" height="24" viewBox="0 0 25 24" fill="none" xmlns="http://www.w3.org/2000/svg">
<g clip-path="url(#clip0_302_2)">
<rect width="24" height="24" transform="translate(0.845947)" fill="#1877F2"/>
<path d="M24.3459 12.0699C24.3459 5.7186 19.1972 0.56988 12.8459 0.56988C6.49467 0.56988 1.34595 5.7186 1.34595 12.0699C1.34595 17.8099 5.55133 22.5674 11.0491 23.4302V15.3941H8.12915V12.0699H11.0491V9.53629C11.0491 6.6541 12.7659 5.06207 15.3928 5.06207C16.651 5.06207 17.967 5.28668 17.967 5.28668V8.11675H16.5169C15.0883 8.11675 14.6428 9.00322 14.6428 9.91266V12.0699H17.8323L17.3224 15.3941H14.6428V23.4302C20.1406 22.5674 24.3459 17.8099 24.3459 12.0699Z" fill="white"/>
</g>
<defs>
<clipPath id="clip0_302_2">
<rect width="24" height="24" fill="white" transform="translate(0.845947)"/>
</clipPath>
</defs>
</svg>
