<svg width="26" height="26" viewBox="0 0 26 26" fill="none" xmlns="http://www.w3.org/2000/svg">
<path d="M13 22.7503C12.8574 22.7512 12.7161 22.7238 12.5841 22.6699C12.4521 22.616 12.3321 22.5366 12.2308 22.4362L3.81334 14.0078C2.75748 12.9409 2.16522 11.5005 2.16522 9.99949C2.16522 8.49846 2.75748 7.05805 3.81334 5.99116C4.87745 4.93004 6.3189 4.33417 7.82167 4.33417C9.32444 4.33417 10.7659 4.93004 11.83 5.99116L13 7.16116L14.17 5.99116C15.2341 4.93004 16.6756 4.33417 18.1783 4.33417C19.6811 4.33417 21.1226 4.93004 22.1867 5.99116C23.2425 7.05805 23.8348 8.49846 23.8348 9.99949C23.8348 11.5005 23.2425 12.9409 22.1867 14.0078L13.7692 22.4362C13.6679 22.5366 13.5479 22.616 13.4159 22.6699C13.2839 22.7238 13.1426 22.7512 13 22.7503ZM7.82167 6.50032C7.36307 6.49825 6.90862 6.58719 6.48463 6.76199C6.06064 6.93679 5.67556 7.19398 5.35167 7.51866C4.6974 8.17637 4.33013 9.06636 4.33013 9.99407C4.33013 10.9218 4.6974 11.8118 5.35167 12.4695L13 20.1287L20.6483 12.4695C21.3026 11.8118 21.6699 10.9218 21.6699 9.99407C21.6699 9.06636 21.3026 8.17637 20.6483 7.51866C19.9806 6.88784 19.0969 6.53639 18.1783 6.53639C17.2598 6.53639 16.376 6.88784 15.7083 7.51866L13.7692 9.46866C13.6685 9.5702 13.5486 9.65079 13.4166 9.70579C13.2846 9.76079 13.143 9.78911 13 9.78911C12.857 9.78911 12.7154 9.76079 12.5834 9.70579C12.4514 9.65079 12.3315 9.5702 12.2308 9.46866L10.2917 7.51866C9.96779 7.19398 9.5827 6.93679 9.15871 6.76199C8.73473 6.58719 8.28027 6.49825 7.82167 6.50032Z" fill="#504D4D" fill-opacity="0.5"/>
</svg>
