<svg width="24" height="24" viewBox="0 0 24 24" fill="none" xmlns="http://www.w3.org/2000/svg">
<path d="M8.35501 0.643626C5.46845 1.65782 2.97196 3.84225 1.56769 6.57278C1.0996 7.50897 0.709519 8.52316 0.553488 9.61538C0.00738171 12.1899 0.397458 14.9984 1.56769 17.3389C2.34784 18.8992 3.44005 20.2254 4.84433 21.3177C6.09257 22.3319 7.57486 23.112 9.21318 23.5021C11.2416 24.0482 13.348 24.0482 15.2984 23.5801C17.0927 23.19 18.8091 22.3319 20.2133 21.0056C21.6956 19.6793 22.7098 17.963 23.2559 16.0126C23.88 13.9842 23.9581 11.7998 23.568 9.69339C19.8232 9.69339 16.0785 9.69339 12.3338 9.69339C12.3338 11.2537 12.3338 12.814 12.3338 14.3743C14.5182 14.3743 16.7026 14.3743 18.8091 14.3743C18.575 15.8566 17.6388 17.2609 16.3906 18.041C15.6104 18.5871 14.6742 18.8992 13.7381 19.0552C12.8019 19.2113 11.7877 19.2113 10.8515 19.0552C9.91532 18.8992 8.97913 18.4311 8.19898 17.885C6.95074 17.0268 5.93654 15.7006 5.46845 14.2183C4.92234 12.736 4.92234 11.0977 5.46845 9.53736C5.85852 8.52316 6.40463 7.50897 7.18478 6.72881C8.12097 5.71461 9.36921 5.01248 10.7735 4.77843C11.9437 4.54439 13.1139 4.54439 14.2842 4.93446C15.2204 5.24652 16.1565 5.79263 16.8587 6.41675C17.5608 5.71462 18.341 4.93446 19.0431 4.23233C19.4332 3.84225 19.8232 3.45217 20.2133 3.0621C19.1211 2.0479 17.7949 1.18973 16.3906 0.643626C13.8161 -0.214542 10.9295 -0.214542 8.35501 0.643626Z" fill="white"/>
<path d="M8.35495 0.643622C10.9295 -0.214546 13.816 -0.214546 16.3905 0.721637C17.7948 1.26774 19.1211 2.0479 20.2133 3.14011C19.8232 3.53019 19.4331 3.92026 19.043 4.31034C18.3409 5.01248 17.5608 5.79263 16.8586 6.49476C16.1565 5.79263 15.2203 5.24652 14.2841 5.01248C13.1919 4.70041 11.9437 4.6224 10.7734 4.85644C9.44717 5.16851 8.19892 5.87064 7.18472 6.80683C6.40457 7.58698 5.78045 8.60118 5.46839 9.61537C4.14213 8.60118 2.89389 7.58698 1.56763 6.57278C2.9719 3.84225 5.46839 1.65782 8.35495 0.643622Z" fill="#EA4335"/>
<path d="M0.553488 9.61538C0.787534 8.60118 1.0996 7.58698 1.56769 6.57278C2.89395 7.58698 4.14219 8.60118 5.46845 9.61538C4.92234 11.0977 4.92234 12.736 5.46845 14.2963C4.14219 15.3105 2.89395 16.3247 1.56769 17.3389C0.397458 14.9204 0.00738168 12.1899 0.553488 9.61538Z" fill="#FBBC05"/>
<path d="M12.2557 9.69339C16.0005 9.69339 19.7452 9.69339 23.4899 9.69339C23.88 11.7998 23.802 13.9842 23.1779 16.0126C22.6318 17.885 21.6176 19.6013 20.1353 21.0056C18.887 19.9914 17.6388 19.0552 16.3125 18.041C17.5608 17.1829 18.4189 15.8566 18.731 14.3743C16.5466 14.3743 14.3621 14.3743 12.2557 14.3743C12.2557 12.814 12.2557 11.2537 12.2557 9.69339Z" fill="#4285F4"/>
<path d="M1.56763 17.3389C2.89389 16.3247 4.14213 15.3105 5.46839 14.2963C5.93648 15.7786 6.95068 17.1048 8.19892 17.963C8.97907 18.5091 9.91526 18.8992 10.8514 19.1332C11.7876 19.2893 12.7238 19.2893 13.738 19.1332C14.6742 18.9772 15.6104 18.5871 16.3905 18.119C17.6388 19.1332 18.887 20.0694 20.2133 21.0836C18.809 22.3319 17.1707 23.19 15.2983 23.6581C13.2699 24.1262 11.1635 24.1262 9.21312 23.5801C7.65281 23.19 6.17053 22.4099 4.84427 21.3957C3.51801 20.2255 2.34778 18.8212 1.56763 17.3389Z" fill="#34A853"/>
</svg>
