<svg xmlns:mydata="http://www.w3.org/2000/svg" mydata:contrastcolor="11111f" mydata:template="Contrast" mydata:presentation="2.5" mydata:layouttype="undefined" mydata:specialfontid="undefined" mydata:id1="616" mydata:id2="013" mydata:companyname="AR Visonary Explora" mydata:companytagline="" version="1.1" xmlns="http://www.w3.org/2000/svg" xmlns:xlink="http://www.w3.org/1999/xlink" viewBox="0 0 550 470" style="background-color: rgb(246, 241, 221); background-image: radial-gradient(circle closest-side, rgba(255, 255, 255, 0.07) 0%, rgba(255, 255, 255, 0) 100%);"><style style="animation-play-state: running;">#pulse-circle1 {
                transform: scale(0);
                opacity: 0;
                transform-origin: 50% 50%;
                animation: pulse 4s cubic-bezier(.5,.5,0,1) infinite;
            }

            #pulse-circle2 {
                transform: scale(0);
                opacity: 0;
                transform-origin: 50% 50%;
                animation: pulse 4s 0.75s cubic-bezier(.5,.5,0,1) infinite;
            }

            #pulse-circle3 {
                transform: scale(0);
                opacity: 0;
                transform-origin: 50% 50%;
                animation: pulse 4s 1.5s cubic-bezier(.5,.5,0,1) infinite;
            }
            
            @keyframes pulse {                
                12% {
                    opacity: 0.3;
                }
                
                50% {
                    transform: scale(1);
                }
                
                100% {                    
                    transform: scale(1);
                }                
            }</style><g fill="#c1a01e" fill-rule="none" stroke="none" stroke-width="1" stroke-linecap="butt" stroke-linejoin="miter" stroke-miterlimit="10" stroke-dasharray="" stroke-dashoffset="0" font-family="none" font-weight="none" font-size="none" text-anchor="none" style="mix-blend-mode: normal; animation-play-state: running;"><g data-paper-data="{&quot;isGlobalGroup&quot;:true,&quot;bounds&quot;:{&quot;x&quot;:133.0554518927391,&quot;y&quot;:115,&quot;width&quot;:283.88909621452177,&quot;height&quot;:240}}" style="animation-play-state: running;"><g data-paper-data="{&quot;isSecondaryText&quot;:true}" fill-rule="nonzero" style="animation-play-state: running;"><path d="M163.291,354.83923v-14.34907h9.04353v1.246h-7.67695v5.24525h6.87308v1.28619h-6.87308v5.28544h7.95831v1.28619z" data-paper-data="{&quot;glyphName&quot;:&quot;E&quot;,&quot;glyphIndex&quot;:0,&quot;firstGlyphOfWord&quot;:true,&quot;word&quot;:1}" style="animation-play-state: running;"></path><path d="M203.95753,347.48382c-0.14738,-0.22776 -0.34164,-0.52586 -0.58281,-0.8943c-0.24116,-0.36844 -0.50242,-0.77707 -0.78377,-1.2259c-0.28135,-0.44883 -0.57946,-0.91105 -0.8943,-1.38667c-0.31485,-0.47562 -0.61295,-0.9345 -0.8943,-1.37663c-0.28135,-0.44213 -0.54261,-0.84741 -0.78377,-1.21585c-0.24116,-0.36844 -0.43543,-0.66654 -0.58281,-0.8943h1.68813c0.20097,0.32155 0.45888,0.73018 0.77372,1.2259c0.31485,0.49572 0.6431,1.01154 0.98474,1.54745c0.34164,0.53591 0.66989,1.05508 0.98474,1.5575c0.31485,0.50242 0.57946,0.9144 0.79382,1.23595l0.24116,0.48232l0.24116,-0.48232c0.20097,-0.32155 0.45553,-0.73353 0.76368,-1.23595c0.30815,-0.50242 0.6297,-1.02158 0.96464,-1.5575c0.33495,-0.53591 0.65649,-1.05173 0.96464,-1.54745c0.30815,-0.49572 0.56271,-0.90435 0.76368,-1.2259h1.62784l-4.48157,7.05395c0.16077,0.24116 0.36509,0.55601 0.61295,0.94455c0.24786,0.38854 0.52252,0.81392 0.82397,1.27614c0.30145,0.46222 0.61295,0.9412 0.9345,1.43692c0.32155,0.49572 0.63305,0.97469 0.9345,1.43692c0.30145,0.46222 0.57611,0.88426 0.82397,1.26609c0.24786,0.38184 0.45218,0.69334 0.61295,0.9345h-1.70822l-3.27577,-5.14476c-0.09378,-0.13398 -0.21102,-0.3249 -0.35169,-0.57276c-0.14068,-0.24786 -0.26461,-0.44548 -0.37179,-0.59285c-0.04019,0.09378 -0.08374,0.18757 -0.13063,0.28135c-0.04689,0.09378 -0.08374,0.15407 -0.11053,0.18087l-3.61741,5.84815h-1.68813c0.16077,-0.24116 0.36509,-0.55601 0.61295,-0.94455c0.24786,-0.38854 0.52252,-0.81727 0.82397,-1.28619c0.30145,-0.46892 0.61295,-0.95125 0.9345,-1.44696c0.32155,-0.49572 0.6297,-0.97804 0.92445,-1.44696c0.29475,-0.46892 0.56941,-0.89765 0.82397,-1.28619c0.25456,-0.38854 0.45553,-0.70339 0.6029,-0.94455z" data-paper-data="{&quot;glyphName&quot;:&quot;X&quot;,&quot;glyphIndex&quot;:1,&quot;word&quot;:1}" style="animation-play-state: running;"></path><path d="M240.37656,347.78527h2.13025c0.6431,0 1.17901,-0.10383 1.60774,-0.3115c0.42873,-0.20767 0.76703,-0.46892 1.01489,-0.78377c0.24786,-0.31485 0.42203,-0.64979 0.52252,-1.00484c0.10048,-0.35504 0.15073,-0.67994 0.15073,-0.97469c0,-0.36174 -0.07034,-0.72013 -0.21102,-1.07518c-0.14068,-0.35504 -0.34499,-0.66989 -0.61295,-0.94455c-0.26796,-0.27466 -0.6096,-0.49572 -1.02493,-0.66319c-0.41533,-0.16747 -0.89096,-0.25121 -1.42687,-0.25121h-2.15035zM239.00998,354.83923v-14.34907h3.47673c0.6029,0 1.18571,0.08374 1.74842,0.25121c0.56271,0.16747 1.06178,0.42538 1.49721,0.77372c0.43543,0.34834 0.78377,0.78377 1.04503,1.30629c0.26126,0.52252 0.39189,1.14551 0.39189,1.869c0,0.54931 -0.08709,1.08857 -0.26126,1.61779c-0.17417,0.52921 -0.44548,0.99814 -0.81392,1.40677c-0.36844,0.40863 -0.84741,0.74023 -1.43692,0.99479c-0.5895,0.25456 -1.29959,0.38184 -2.13025,0.38184h-2.15035v5.74767z" data-paper-data="{&quot;glyphName&quot;:&quot;P&quot;,&quot;glyphIndex&quot;:2,&quot;word&quot;:1}" style="animation-play-state: running;"></path><path d="M275.30792,354.83923v-14.34907h1.36658v13.04278h7.63676v1.30629z" data-paper-data="{&quot;glyphName&quot;:&quot;L&quot;,&quot;glyphIndex&quot;:3,&quot;word&quot;:1}" style="animation-play-state: running;"></path><path d="M311.2203,347.68479c0,-1.00484 0.19092,-1.95273 0.57276,-2.84369c0.38184,-0.89096 0.90435,-1.67138 1.56755,-2.34127c0.66319,-0.66989 1.44027,-1.19911 2.33122,-1.58764c0.89096,-0.38854 1.83885,-0.58281 2.84369,-0.58281c1.00484,0 1.95608,0.19427 2.85374,0.58281c0.89765,0.38854 1.67808,0.91775 2.34127,1.58764c0.66319,0.66989 1.18906,1.45031 1.57759,2.34127c0.38854,0.89096 0.58281,1.83885 0.58281,2.84369c0,1.00484 -0.19427,1.95273 -0.58281,2.84369c-0.38854,0.89096 -0.9144,1.66803 -1.57759,2.33122c-0.66319,0.66319 -1.44362,1.18571 -2.34127,1.56755c-0.89765,0.38184 -1.8489,0.57276 -2.85374,0.57276c-1.00484,0 -1.95273,-0.19092 -2.84369,-0.57276c-0.89096,-0.38184 -1.66803,-0.90435 -2.33122,-1.56755c-0.66319,-0.66319 -1.18571,-1.44027 -1.56755,-2.33122c-0.38184,-0.89096 -0.57276,-1.83885 -0.57276,-2.84369zM312.58688,347.68479c0,0.83066 0.15742,1.61109 0.47227,2.34127c0.31485,0.73018 0.74023,1.36658 1.27614,1.90919c0.53591,0.54261 1.16561,0.97134 1.88909,1.28619c0.72348,0.31485 1.49386,0.47227 2.31112,0.47227c0.81727,0 1.59099,-0.15742 2.32117,-0.47227c0.73018,-0.31485 1.36658,-0.74358 1.90919,-1.28619c0.54261,-0.54261 0.97134,-1.17901 1.28619,-1.90919c0.31485,-0.73018 0.47227,-1.5106 0.47227,-2.34127c0,-0.83066 -0.15742,-1.61109 -0.47227,-2.34127c-0.31485,-0.73018 -0.74358,-1.36993 -1.28619,-1.91924c-0.54261,-0.54931 -1.17901,-0.98139 -1.90919,-1.29624c-0.73018,-0.31485 -1.50391,-0.47227 -2.32117,-0.47227c-0.83066,0 -1.60439,0.15742 -2.32117,0.47227c-0.71678,0.31485 -1.34648,0.74693 -1.88909,1.29624c-0.54261,0.54931 -0.96799,1.18906 -1.27614,1.91924c-0.30815,0.73018 -0.46222,1.5106 -0.46222,2.34127z" data-paper-data="{&quot;glyphName&quot;:&quot;O&quot;,&quot;glyphIndex&quot;:4,&quot;word&quot;:1}" style="animation-play-state: running;"></path><path d="M359.15554,354.83923v-14.34907h3.47673c0.6029,0 1.18571,0.08374 1.74842,0.25121c0.56271,0.16747 1.06178,0.42538 1.49721,0.77372c0.43543,0.34834 0.78377,0.78377 1.04503,1.30629c0.26126,0.52252 0.39189,1.14551 0.39189,1.869c0,0.80387 -0.18087,1.56755 -0.54261,2.29103c-0.36174,0.72348 -0.95794,1.27949 -1.78861,1.66803c0.12058,0.20097 0.28135,0.46892 0.48232,0.80387c0.20097,0.33495 0.42203,0.70004 0.66319,1.09527c0.24116,0.39524 0.49237,0.80722 0.75363,1.23595c0.26126,0.42873 0.51247,0.83736 0.75363,1.2259c0.24116,0.38854 0.46222,0.74358 0.66319,1.06513c0.20097,0.32155 0.36174,0.57611 0.48232,0.76368h-1.66803c-0.10718,-0.16077 -0.24786,-0.38184 -0.42203,-0.66319c-0.17417,-0.28135 -0.36844,-0.5962 -0.58281,-0.94455c-0.21437,-0.34834 -0.44213,-0.71678 -0.68329,-1.10532c-0.24116,-0.38854 -0.47562,-0.77037 -0.70339,-1.14551c-0.22776,-0.37514 -0.44548,-0.73018 -0.65314,-1.06513c-0.20767,-0.33495 -0.38519,-0.623 -0.53256,-0.86416c-0.13398,0.0268 -0.27466,0.04019 -0.42203,0.04019c-0.14738,0 -0.29475,0 -0.44213,0h-2.15035v5.74767zM360.52212,347.78527h2.13025c0.6431,0 1.17901,-0.10718 1.60774,-0.32155c0.42873,-0.21437 0.76703,-0.47897 1.01489,-0.79382c0.24786,-0.31485 0.42203,-0.64979 0.52252,-1.00484c0.10048,-0.35504 0.15073,-0.67994 0.15073,-0.97469c0,-0.36174 -0.07034,-0.71678 -0.21102,-1.06513c-0.14068,-0.34834 -0.34499,-0.65984 -0.61295,-0.9345c-0.26796,-0.27466 -0.6096,-0.49572 -1.02493,-0.66319c-0.41533,-0.16747 -0.89096,-0.25121 -1.42687,-0.25121h-2.15035z" data-paper-data="{&quot;glyphName&quot;:&quot;R&quot;,&quot;glyphIndex&quot;:5,&quot;word&quot;:1}" style="animation-play-state: running;"></path><path d="M406.16149,354.83923c-0.26796,-0.6163 -0.58281,-1.37328 -0.94455,-2.27093c-0.36174,-0.89765 -0.73688,-1.8489 -1.12542,-2.85374h-5.50651c-0.38854,1.00484 -0.76368,1.95608 -1.12542,2.85374c-0.36174,0.89765 -0.67659,1.65463 -0.94455,2.27093h-1.36658c0.20097,-0.48232 0.46892,-1.12207 0.80387,-1.91924c0.33495,-0.79717 0.69669,-1.67138 1.08522,-2.62262c0.38854,-0.95125 0.79047,-1.93933 1.2058,-2.96427c0.41533,-1.02493 0.81727,-2.01302 1.2058,-2.96427c0.38854,-0.95125 0.74693,-1.8221 1.07518,-2.61258c0.32825,-0.79047 0.59955,-1.43357 0.81392,-1.92929c0.20097,0.49572 0.46892,1.13881 0.80387,1.92929c0.33495,0.79047 0.69669,1.66133 1.08522,2.61258c0.38854,0.95125 0.79382,1.93933 1.21585,2.96427c0.42203,1.02493 0.82732,2.01302 1.21585,2.96427c0.38854,0.95125 0.74693,1.82545 1.07518,2.62262c0.32825,0.79717 0.59955,1.43692 0.81392,1.91924zM401.13731,343.34389c-0.26796,0.6297 -0.58615,1.40007 -0.95459,2.31112c-0.36844,0.91105 -0.74693,1.869 -1.13547,2.87383h4.58206c-0.40193,-1.00484 -0.78377,-1.96278 -1.14551,-2.87383c-0.36174,-0.91105 -0.67659,-1.68143 -0.94455,-2.31112c-0.0268,-0.05359 -0.06029,-0.14403 -0.10048,-0.27131c-0.04019,-0.12728 -0.07369,-0.24451 -0.10048,-0.35169c-0.0268,0.10718 -0.06029,0.22441 -0.10048,0.35169c-0.04019,0.12728 -0.07369,0.21771 -0.10048,0.27131z" data-paper-data="{&quot;glyphName&quot;:&quot;A&quot;,&quot;glyphIndex&quot;:6,&quot;lastGlyphOfWord&quot;:true,&quot;word&quot;:1}" style="animation-play-state: running;"></path></g><g data-paper-data="{&quot;isPrimaryText&quot;:true}" fill-rule="nonzero" style="animation-play-state: running;"><path d="M145.5593,276.46078c-10.21024,0 -12.50385,10.06227 -12.50385,25.67358c0,12.42986 0,24.85972 0,24.85972h6.21493c0,0 0,-5.32708 0,-12.42986h12.42986c0,7.10278 0,12.42986 0,12.42986h6.28892c0,0 0,-12.42986 0,-24.85972c0,-14.79745 -2.36759,-25.67358 -12.42986,-25.67358zM139.27038,308.71922c0,-2.21962 0,-4.36525 0,-6.58487c0,-13.24372 1.55373,-19.90257 6.28892,-19.90257c4.58721,0 6.14094,6.65885 6.14094,19.90257c0,2.21962 0,4.36525 0,6.58487z" data-paper-data="{&quot;glyphName&quot;:&quot;a&quot;,&quot;glyphIndex&quot;:0,&quot;firstGlyphOfWord&quot;:true,&quot;word&quot;:1}" style="animation-play-state: running;"></path><path d="M181.88704,321.14908c-2.58955,0 -3.03348,-6.14094 -4.88316,-8.43455c5.2531,-1.77569 11.09809,-6.21493 11.09809,-17.60897c0,-18.71878 -12.42986,-18.71878 -18.64479,-18.71878c-3.10746,0 -6.28892,0.81386 -6.28892,0.81386v0v49.79342h6.28892v-13.24372c6.21493,0 3.10746,13.68764 12.42986,13.68764c3.84734,0 6.21493,-3.92132 6.21493,-3.92132l-3.84734,-3.92132c0,0 -0.81386,1.55373 -2.36759,1.55373zM169.45718,282.60172c6.21493,0 12.42986,0.81386 12.42986,12.50385c0,10.87613 -6.21493,12.42986 -12.42986,12.42986z" data-paper-data="{&quot;glyphName&quot;:&quot;r&quot;,&quot;glyphIndex&quot;:1,&quot;lastGlyphOfWord&quot;:true,&quot;word&quot;:1}" style="animation-play-state: running;"></path><path d="M228.79496,277.20065l-6.14094,39.80514l-6.21493,-39.80514h-6.21493l9.32239,49.79342h1.55373h3.10746h1.55373l9.32239,-49.79342z" data-paper-data="{&quot;glyphName&quot;:&quot;v&quot;,&quot;glyphIndex&quot;:2,&quot;firstGlyphOfWord&quot;:true,&quot;word&quot;:2}" style="animation-play-state: running;"></path><path d="M244.99817,326.99407v-49.79342h-6.21493v49.79342z" data-paper-data="{&quot;glyphName&quot;:&quot;i&quot;,&quot;glyphIndex&quot;:3,&quot;word&quot;:2}" style="animation-play-state: running;"></path><path d="M273.03934,291.33222c0,-6.28892 0,-14.87144 -12.50385,-14.87144c-10.13625,0 -11.616,9.32239 -11.616,11.616c0,19.31067 17.90492,18.86675 17.90492,29.003c0,3.10746 -2.2936,5.47506 -5.47506,5.47506c-2.36759,0 -5.47506,-0.73987 -5.47506,-7.91664h-6.21493c0,7.91664 3.03348,13.31771 11.68999,13.31771c10.95011,0 11.68999,-8.58252 11.68999,-10.87613c0,-15.16739 -17.75694,-13.68764 -17.75694,-29.003c0,-4.6612 3.69936,-6.21493 5.2531,-6.21493c5.47506,0 6.28892,3.18145 6.28892,9.47037z" data-paper-data="{&quot;glyphName&quot;:&quot;s&quot;,&quot;glyphIndex&quot;:4,&quot;word&quot;:2}" style="animation-play-state: running;"></path><path d="M289.68647,276.23882c-10.21024,0 -12.50385,12.50385 -12.50385,25.67358c0,13.24372 2.2936,25.67358 12.50385,25.67358c10.06227,0 12.35587,-11.616 12.35587,-25.67358c0,-13.16973 -2.2936,-25.67358 -12.35587,-25.67358zM289.68647,322.1849c-5.54904,0 -6.28892,-10.87613 -6.28892,-20.27251c0,-9.32239 0.73987,-20.19852 6.28892,-20.19852c5.40107,0 6.14094,10.87613 6.14094,20.19852c0,9.39638 -0.73987,20.27251 -6.14094,20.27251z" data-paper-data="{&quot;glyphName&quot;:&quot;o&quot;,&quot;glyphIndex&quot;:5,&quot;word&quot;:2}" style="animation-play-state: running;"></path><path d="M325.64428,277.20065l0.51791,32.25844c-5.54904,-11.54201 -12.94777,-24.41579 -12.94777,-32.25844h-6.28892v49.79342h6.28892l-0.51791,-32.25844c5.47506,11.46802 12.94777,24.41579 12.94777,32.25844h6.21493v-49.79342z" data-paper-data="{&quot;glyphName&quot;:&quot;n&quot;,&quot;glyphIndex&quot;:6,&quot;word&quot;:2}" style="animation-play-state: running;"></path><path d="M349.61615,276.46078c-10.21024,0 -12.50385,10.06227 -12.50385,25.67358c0,12.42986 0,24.85972 0,24.85972h6.21493c0,0 0,-5.32708 0,-12.42986h12.42986c0,7.10278 0,12.42986 0,12.42986h6.28892c0,0 0,-12.42986 0,-24.85972c0,-14.79745 -2.36759,-25.67358 -12.42986,-25.67358zM343.32723,308.71922c0,-2.21962 0,-4.36525 0,-6.58487c0,-13.24372 1.55373,-19.90257 6.28892,-19.90257c4.58721,0 6.14094,6.65885 6.14094,19.90257c0,2.21962 0,4.36525 0,6.58487z" data-paper-data="{&quot;glyphName&quot;:&quot;a&quot;,&quot;glyphIndex&quot;:7,&quot;word&quot;:2}" style="animation-play-state: running;"></path><path d="M385.94389,321.14908c-2.58955,0 -3.03348,-6.14094 -4.88316,-8.43455c5.2531,-1.77569 11.09809,-6.21493 11.09809,-17.60897c0,-18.71878 -12.42986,-18.71878 -18.64479,-18.71878c-3.10746,0 -6.28892,0.81386 -6.28892,0.81386v0v49.79342h6.28892v-13.24372c6.21493,0 3.10746,13.68764 12.42986,13.68764c3.84734,0 6.21493,-3.92132 6.21493,-3.92132l-3.84734,-3.92132c0,0 -0.81386,1.55373 -2.36759,1.55373zM373.51403,282.60172c6.21493,0 12.42986,0.81386 12.42986,12.50385c0,10.87613 -6.21493,12.42986 -12.42986,12.42986z" data-paper-data="{&quot;glyphName&quot;:&quot;r&quot;,&quot;glyphIndex&quot;:8,&quot;word&quot;:2}" style="animation-play-state: running;"></path><path d="M410.65563,277.20065l-6.21493,27.67123l-6.21493,-27.67123h-6.21493l9.39638,37.36356v12.42986h6.14094v-12.42986l9.39638,-37.36356z" data-paper-data="{&quot;glyphName&quot;:&quot;y&quot;,&quot;glyphIndex&quot;:9,&quot;lastGlyphOfWord&quot;:true,&quot;word&quot;:2}" style="animation-play-state: running;"></path></g><g data-paper-data="{&quot;isIcon&quot;:&quot;true&quot;,&quot;iconType&quot;:&quot;icon&quot;,&quot;rawIconId&quot;:&quot;1371437&quot;,&quot;selectedEffects&quot;:{&quot;container&quot;:&quot;&quot;,&quot;transformation&quot;:&quot;&quot;,&quot;pattern&quot;:&quot;&quot;},&quot;isDetailed&quot;:false,&quot;iconStyle&quot;:&quot;standalone&quot;,&quot;bounds&quot;:{&quot;x&quot;:208.2690201687035,&quot;y&quot;:115,&quot;width&quot;:133.46195966259302,&quot;height&quot;:133.46195966259302},&quot;fillRule&quot;:&quot;evenodd&quot;,&quot;suitableAsStandaloneIcon&quot;:true}" fill-rule="evenodd" style="animation-play-state: running;"><path d="M219.39141,115h111.21719c6.11589,0 11.12239,5.00649 11.12239,11.12239v111.21719c0,6.11589 -5.00649,11.12239 -11.12239,11.12239h-111.21719c-6.11589,0 -11.12239,-5.00649 -11.12239,-11.12239v-111.21719c0,-6.11589 5.00649,-11.12239 11.12239,-11.12239zM275,237.33957l50.04823,-27.80346v-55.61026l-50.04823,-27.80346l-50.04823,27.80346v55.61026l11.12239,6.17929v-55.24491l38.92585,-21.62417l38.92585,21.62417v42.52098l-38.92585,21.62417l-16.68274,-9.2706v-41.78861l16.68274,-9.2706l16.68274,9.2706v16.34742l-11.12239,6.17595v-15.97706l-5.56036,-3.08464l-5.56036,3.08297v28.70099l5.56036,3.08964l27.80513,-15.44322v-29.43337l-27.80513,-15.44489l-27.80513,15.44489v54.87956z" data-paper-data="{&quot;isPathIcon&quot;:true}" style="animation-play-state: running;"></path></g></g></g><circle id="pulse-circle1" cx="50%" cy="50%" r="45%" stroke="#c1a01e" stroke-width="5" fill="none" style="animation-play-state: running;"></circle><circle id="pulse-circle2" cx="50%" cy="50%" r="45%" stroke="#c1a01e" stroke-width="5" fill="none" style="animation-play-state: running;"></circle><circle id="pulse-circle3" cx="50%" cy="50%" r="45%" stroke="#c1a01e" stroke-width="5" fill="none" style="animation-play-state: running;"></circle></svg>